<?xml version="1.0" encoding="utf-8"?>
<!-- Generator: Adobe Illustrator 26.0.3, SVG Export Plug-In . SVG Version: 6.00 Build 0)  -->
<svg version="1.1" id="Layer_1" xmlns="http://www.w3.org/2000/svg" xmlns:xlink="http://www.w3.org/1999/xlink" x="0px" y="0px"
	 viewBox="0 0 450.4 450.4" style="enable-background:new 0 0 450.4 450.4;" xml:space="preserve" fill="#FFFFFF">
<g>
	<g>
		<polygon points="186.3,165.7 186.3,276.1 288.1,221.4 		"/>
	</g>
</g>
<g>
	<g>
		<path d="M402.4,0H47.5C20.1,0,0,21.8,0,47v355.4c0,26.4,21.6,48,48,48h354.4c26.4,0,48-21.6,48-48V48C450.4,21.6,428.8,0,402.4,0z
			 M392.5,238.5c0,28.3-2.6,57.1-2.6,57.1s-3,24-12.9,34.7c-12.9,14.2-27,14.2-33.5,15c-47.2,3.4-118,3.9-118,3.9s-84-1.2-113.1-3.7
			c-0.9-0.1-1.9-0.2-2.8-0.3c-7.7-1.1-24.1-1.3-36.4-14.9c-10.3-10.7-12.9-34.7-12.9-34.7s-2.6-28.7-2.6-57.1v-26.6
			c0-28.3,2.6-57.1,2.6-57.1s3-24,12.9-34.7c12.2-13.4,25.6-14.5,32.4-15.3c0.8-0.1,1.6-0.2,2.4-0.2c47.6-3.3,117-3.8,117-3.8
			s69.4,0.4,116.6,3.8c0.8,0.1,1.6,0.1,2.4,0.2c6.9,0.8,20.6,1.8,32.9,14.9c10.3,10.7,12.9,35.2,12.9,35.2s2.6,28.7,2.6,57.1V238.5z
			"/>
	</g>
</g>
</svg>
